<svg id="Слой_1" data-name="Слой 1" xmlns="http://www.w3.org/2000/svg" viewBox="0 0 224 224"><defs><style>.cls-1{fill:#ccc;fill-rule:evenodd;}</style></defs><title>Иконка вверх</title><path class="cls-1" d="M190.36,33.64A110.79,110.79,0,1,0,222.83,112,110.45,110.45,0,0,0,190.36,33.64Zm-11,145.74A95.29,95.29,0,1,1,207.29,112,95,95,0,0,1,179.38,179.38Z"/><path class="cls-1" d="M118.58,51.06c-7.65-6.63-10.24-1.32-12.57-.84L59.37,98.14c-6.81,8.73.61,12.64,4.77,12.5H85v45a11,11,0,0,0,11,11h31.79a11,11,0,0,0,11-11v-45h22.75c5.22.1,8.94-6.15,4.66-11.57Z"/></svg>